<svg xmlns="http://www.w3.org/2000/svg" xmlns:xlink="http://www.w3.org/1999/xlink" width="600" zoomAndPan="magnify" viewBox="0 0 450 449.999984" height="600" preserveAspectRatio="xMidYMid meet" version="1.0"><defs><filter x="0%" y="0%" width="100%" height="100%" id="2c639e1ab7"><feColorMatrix values="0 0 0 0 1 0 0 0 0 1 0 0 0 0 1 0 0 0 1 0" color-interpolation-filters="sRGB"/></filter><clipPath id="752509ac6a"><path d="M 25.011719 45 L 325 45 L 325 442.5 L 25.011719 442.5 Z M 25.011719 45 " clip-rule="nonzero"/></clipPath><mask id="304f45b337"><g filter="url(#2c639e1ab7)"><rect x="-45" width="540" fill="#000000" y="-44.999998" height="539.99998" fill-opacity="0.72"/></g></mask><clipPath id="213f541c51"><path d="M 0.441406 0.894531 L 73.925781 0.894531 L 73.925781 67.425781 L 0.441406 67.425781 Z M 0.441406 0.894531 " clip-rule="nonzero"/></clipPath><clipPath id="f142401f8d"><path d="M 72.851562 14.953125 C 70.535156 7.089844 63.0625 0.894531 54.226562 0.894531 C 46.804688 0.894531 40.359375 5.078125 37.101562 11.226562 C 33.84375 5.078125 27.398438 0.894531 19.980469 0.894531 C 10.738281 0.894531 2.652344 7.089844 1.066406 16.085938 C -2.960938 38.894531 22.550781 56.75 37.160156 67.425781 C 50.664062 57.554688 79.46875 37.425781 72.851562 14.953125 Z M 72.851562 14.953125 " clip-rule="nonzero"/></clipPath><clipPath id="29245d5a64"><path d="M 0.441406 0.894531 L 73.925781 0.894531 L 73.925781 67.425781 L 0.441406 67.425781 Z M 0.441406 0.894531 " clip-rule="nonzero"/></clipPath><clipPath id="5feab21129"><path d="M 72.851562 14.953125 C 70.535156 7.089844 63.0625 0.894531 54.226562 0.894531 C 46.804688 0.894531 40.359375 5.078125 37.101562 11.226562 C 33.84375 5.078125 27.398438 0.894531 19.980469 0.894531 C 10.738281 0.894531 2.652344 7.089844 1.066406 16.085938 C -2.960938 38.894531 22.550781 56.75 37.160156 67.425781 C 50.664062 57.554688 79.46875 37.425781 72.851562 14.953125 Z M 72.851562 14.953125 " clip-rule="nonzero"/></clipPath><clipPath id="639f399e2c"><rect x="0" width="74" y="0" height="68"/></clipPath><clipPath id="7b7b27ce0b"><rect x="0" width="75" y="0" height="68"/></clipPath></defs><g clip-path="url(#752509ac6a)"><path fill="#000000" d="M 319.359375 416.484375 C 318.730469 416.0625 318.097656 415.335938 317.183594 415.96875 C 316.226562 415.578125 315.28125 415.125 314.226562 415.703125 C 313.554688 414.96875 312.671875 414.808594 311.746094 414.882812 C 308.378906 415.15625 306.507812 413.296875 305.464844 410.402344 C 304.792969 408.550781 304.226562 406.648438 303.792969 404.722656 C 300.542969 390.050781 298.808594 375.148438 297.1875 360.230469 C 296.726562 355.929688 296.304688 351.628906 295.96875 347.328125 C 296.125 344.855469 296.011719 341.953125 295.578125 338.542969 C 295.472656 337.671875 295.378906 336.796875 295.304688 335.914062 C 295.160156 331.726562 295.117188 327.53125 295.234375 323.324219 C 296.398438 305.414062 302.425781 286.910156 307.242188 274.636719 C 309.359375 269.882812 311.460938 265.128906 313.460938 260.332031 C 313.460938 260.332031 313.460938 260.320312 313.460938 260.320312 C 314.976562 256.691406 316.425781 253.03125 317.773438 249.328125 C 321.464844 239.148438 323.105469 228.640625 321.855469 217.753906 C 320.390625 205.039062 315.835938 193.363281 310.292969 181.984375 C 305.613281 172.371094 300.25 163.050781 297.253906 152.742188 C 297.136719 152.269531 294.371094 140.132812 299.554688 133.820312 C 299.859375 133.441406 300.15625 133.085938 300.417969 132.746094 C 300.503906 132.652344 300.585938 132.546875 300.671875 132.421875 C 301.027344 131.96875 301.34375 131.546875 301.628906 131.167969 C 303.152344 129.351562 305.035156 127.867188 306.390625 126.910156 C 306.90625 126.617188 307.515625 126.207031 308.210938 125.722656 C 309.757812 124.648438 311.703125 123.1875 313.996094 121.796875 C 318.65625 118.96875 318.128906 118.011719 316.59375 116.867188 C 317.847656 115.886719 318.59375 114.65625 318.667969 113.035156 C 318.855469 109.304688 318.121094 105.496094 319.183594 101.835938 C 319.296875 101.53125 319.402344 101.226562 319.488281 100.921875 C 319.527344 100.792969 319.582031 100.679688 319.632812 100.550781 C 319.800781 100.003906 319.867188 99.46875 319.792969 98.933594 C 319.90625 95.828125 318.425781 93.453125 318.425781 93.453125 C 318.128906 92.683594 317.867188 91.90625 317.824219 91.066406 C 317.605469 86.320312 316.617188 85.214844 311.976562 85.195312 C 302.984375 85.164062 294.925781 83.113281 288.46875 76.234375 C 285.671875 73.246094 281.75 71.921875 277.644531 71.21875 C 273.460938 70.5 269.273438 70.40625 265.066406 70.542969 C 261.722656 70.648438 258.945312 69.429688 256.472656 67.347656 C 254.558594 65.746094 253.042969 63.792969 251.75 61.667969 C 249.070312 57.28125 247.3125 52.484375 245.429688 47.730469 C 245 46.636719 244.621094 45.089844 242.980469 45.480469 C 241.515625 45.828125 241.820312 47.289062 241.800781 48.402344 C 241.644531 55.335938 241.558594 62.265625 241.371094 69.1875 C 241.253906 73.53125 239.84375 74.234375 235.996094 72.003906 C 232.648438 70.070312 230.179688 67.167969 227.546875 64.441406 C 223.59375 60.351562 219.921875 55.957031 215.023438 52.914062 C 210.625 50.191406 208.175781 51.359375 207.175781 56.398438 C 205.460938 65.023438 206.808594 73.476562 208.40625 81.933594 C 210.015625 90.433594 212.980469 98.691406 213.582031 107.355469 C 214.210938 116.539062 216.789062 125.164062 219.847656 133.726562 C 222.375 140.785156 225.117188 147.757812 226.253906 155.246094 C 227.296875 162.113281 226.824219 168.476562 222.300781 174.230469 C 219.523438 177.753906 217.976562 181.972656 216.800781 186.316406 C 215.832031 189.914062 215.527344 193.625 214.820312 197.265625 C 214.023438 201.398438 211.84375 204.5 208.246094 206.691406 C 204.914062 208.71875 201.253906 210.011719 197.699219 211.527344 C 179.230469 219.394531 163.230469 230.492188 151.261719 246.910156 C 140.460938 261.730469 133.78125 278.402344 129.234375 296 C 126.3125 307.347656 124.34375 318.886719 122.96875 330.539062 C 120.664062 350.070312 120.726562 369.550781 123.789062 389 C 124.480469 393.394531 125.609375 397.738281 125.597656 402.21875 C 125.585938 407.195312 122.894531 410.277344 117.929688 410.867188 C 116.300781 411.066406 114.625 411.171875 112.996094 411.085938 C 97.410156 410.289062 85.027344 403.0625 74.773438 391.753906 C 67.085938 383.277344 62.867188 373.085938 60.585938 361.988281 C 60.816406 361.347656 60.742188 360.757812 60.226562 360.265625 C 60.164062 359.515625 60.101562 358.757812 60.039062 358.011719 C 60.554688 356.332031 59.21875 354.742188 59.796875 353.058594 C 59.859375 352.742188 59.984375 352.429688 59.976562 352.113281 C 59.332031 332 65.421875 313.828125 75.773438 296.871094 C 82.378906 286.039062 90.277344 276.066406 96.957031 265.285156 C 109.429688 245.164062 115.34375 223.613281 110.628906 199.9375 C 108.601562 189.722656 104.5625 180.332031 97.378906 172.539062 C 96.589844 171.894531 96.453125 170.644531 95.324219 170.316406 C 93.949219 168.972656 93.054688 167.066406 91.003906 166.480469 C 90.488281 165.585938 89.847656 164.816406 88.867188 164.394531 C 85.429688 161.492188 81.464844 159.496094 77.289062 157.929688 C 62.886719 152.554688 48.984375 153.195312 35.929688 161.828125 C 31.847656 164.53125 28.210938 167.867188 26.433594 172.609375 C 25.265625 175.722656 25.011719 178.984375 27.441406 181.710938 C 29.851562 184.421875 32.945312 184.003906 35.929688 182.980469 C 39.117188 181.886719 42.199219 180.46875 45.367188 179.3125 C 64.171875 172.433594 81.179688 180.992188 86.523438 200.222656 C 89.824219 212.097656 87.910156 223.5625 83.039062 234.699219 C 78.402344 245.289062 71.796875 254.621094 64.738281 263.664062 C 54.328125 277.011719 44.609375 290.769531 38.222656 306.621094 C 30.703125 325.269531 27.503906 344.445312 30.566406 364.472656 C 30.996094 365.628906 31.4375 366.796875 31.871094 367.953125 C 31.523438 368.511719 31.585938 368.992188 32.089844 369.414062 C 32.070312 370.644531 31.882812 371.90625 32.910156 372.886719 C 32.175781 373.609375 32.523438 374.433594 32.765625 375.199219 C 33.574219 377.851562 34.320312 380.53125 35.269531 383.140625 C 38.371094 391.640625 42.503906 399.613281 48.109375 406.710938 C 59.5 421.132812 73.46875 432.238281 91.148438 437.804688 C 101.65625 441.105469 112.734375 441.664062 123.714844 441.808594 C 135.429688 441.980469 147.148438 441.652344 158.867188 441.863281 C 190.714844 442.410156 222.5625 442.117188 254.410156 441.433594 C 257.851562 441.359375 261.121094 440.664062 264.183594 439.097656 C 270.664062 435.792969 272.703125 427.472656 268.464844 421.542969 C 265.433594 417.292969 261.207031 415.222656 256.042969 414.9375 C 250.234375 414.621094 244.535156 415.671875 238.804688 416.347656 C 238.140625 416.417969 237.414062 416.703125 237.089844 415.894531 C 236.824219 415.230469 237.476562 414.90625 237.867188 414.496094 C 250.667969 400.78125 254.496094 384.402344 252.128906 366.207031 C 251.171875 358.886719 248.425781 352.027344 246.679688 344.90625 C 246.40625 343.8125 245 342.109375 246.785156 341.480469 C 248.078125 341.027344 248.449219 343.003906 249.003906 344.003906 C 258.429688 361.074219 264.667969 379.363281 269.664062 398.140625 C 272.125 407.375 274.226562 416.734375 278.464844 425.382812 C 280.242188 429 282.160156 432.585938 285.890625 434.679688 C 287.1875 435.898438 288.878906 436.257812 290.5 436.71875 C 293.066406 437.457031 295.738281 436.53125 298.3125 437.152344 C 298.996094 437.359375 299.679688 437.359375 300.355469 437.160156 C 303.679688 437.632812 307.035156 437.382812 310.355469 437.320312 C 313.1875 437.265625 316.058594 437.644531 318.84375 436.867188 C 320.832031 436.941406 322.023438 435.667969 323 434.226562 C 326.617188 428.945312 324.765625 420.039062 319.359375 416.484375 Z M 319.359375 416.484375 " fill-opacity="1" fill-rule="nonzero"/></g><g mask="url(#304f45b337)"><g transform="matrix(1, 0, 0, 1, 349, 5)"><g clip-path="url(#7b7b27ce0b)"><g clip-path="url(#213f541c51)"><g clip-path="url(#f142401f8d)"><g transform="matrix(1, 0, 0, 1, -0.000000000000056843, -0.000000000000000888)"><g clip-path="url(#639f399e2c)"><g clip-path="url(#29245d5a64)"><g clip-path="url(#5feab21129)"><path fill="#8c52ff" d="M 0.640625 0.894531 L 73.925781 0.894531 L 73.925781 67.425781 L 0.640625 67.425781 Z M 0.640625 0.894531 " fill-opacity="1" fill-rule="nonzero"/></g></g></g></g></g></g></g></g></g></svg>