<svg xmlns="http://www.w3.org/2000/svg" xmlns:xlink="http://www.w3.org/1999/xlink" width="600" zoomAndPan="magnify" viewBox="0 0 450 449.999984" height="600" preserveAspectRatio="xMidYMid meet" version="1.0"><defs><clipPath id="5d69f068db"><path d="M 2 71.316406 L 447 71.316406 L 447 413 L 2 413 Z M 2 71.316406 " clip-rule="nonzero"/></clipPath></defs><g clip-path="url(#5d69f068db)"><path fill="#000000" d="M 260.730469 200.523438 C 238.816406 223.542969 229.265625 263.355469 224.972656 298.960938 C 215.621094 301.457031 212.363281 316.402344 215.765625 338.261719 C 225.824219 380.480469 253.492188 404.632812 298.777344 410.722656 C 383.652344 416.53125 432.90625 397.359375 446.535156 353.199219 C 449.765625 325.59375 418.648438 310.269531 408.351562 332.179688 C 393.203125 373.121094 352.347656 388.652344 313.414062 385.796875 C 358.113281 385.070312 402.070312 361.738281 399.253906 315.769531 C 396.101562 277.628906 385.160156 244.011719 366.441406 214.914062 C 369.082031 212.820312 371.347656 210.355469 373.226562 207.507812 C 374.011719 208.109375 374.738281 208.726562 375.429688 209.378906 C 378.042969 211.847656 380.195312 214.894531 382.957031 219.566406 C 383.191406 219.960938 383.699219 220.09375 384.09375 219.859375 C 384.488281 219.628906 384.617188 219.121094 384.386719 218.726562 C 381.542969 213.917969 379.3125 210.769531 376.566406 208.171875 C 375.792969 207.445312 374.984375 206.761719 374.109375 206.101562 C 375.203125 204.273438 376.179688 202.402344 377.039062 200.496094 C 380.375 201.617188 382.921875 202.726562 385.238281 204.203125 C 388.28125 206.136719 390.96875 208.714844 394.566406 212.777344 C 394.871094 213.121094 395.394531 213.152344 395.734375 212.847656 C 396.078125 212.546875 396.109375 212.023438 395.804688 211.683594 C 392.097656 207.496094 389.308594 204.828125 386.125 202.800781 C 383.714844 201.269531 381.097656 200.121094 377.699219 198.96875 C 378.789062 196.355469 379.664062 193.671875 380.34375 190.953125 C 383.316406 191.992188 385.652344 193.046875 387.792969 194.40625 C 390.835938 196.339844 393.523438 198.917969 397.125 202.980469 C 397.425781 203.320312 397.949219 203.355469 398.292969 203.050781 C 398.632812 202.75 398.667969 202.226562 398.363281 201.886719 C 394.65625 197.699219 391.867188 195.027344 388.683594 193.003906 C 386.386719 191.542969 383.898438 190.429688 380.726562 189.332031 C 383.28125 177.734375 382.328125 165.445312 378.773438 153.898438 C 391.027344 140.773438 398.832031 124.707031 402.191406 105.703125 C 380.84375 103.578125 364.089844 106.507812 351.925781 114.492188 C 346.363281 110.285156 340.273438 107.113281 333.867188 105.324219 C 333.867188 105.324219 332.613281 104.996094 330.097656 104.339844 C 323.632812 102.773438 316.769531 102.570312 309.859375 103.523438 C 303.148438 90.621094 289.957031 79.882812 270.289062 71.316406 C 263.9375 89.539062 262.898438 107.367188 267.171875 124.804688 C 258.339844 133.222656 251.457031 143.605469 248.054688 155.105469 C 246.113281 154.878906 244.335938 154.8125 242.554688 154.910156 C 238.78125 155.121094 235.046875 156.089844 229.769531 157.933594 C 229.335938 158.082031 229.109375 158.550781 229.261719 158.984375 C 229.410156 159.417969 229.882812 159.644531 230.3125 159.492188 C 235.441406 157.703125 239.050781 156.765625 242.648438 156.5625 C 244.242188 156.472656 245.851562 156.527344 247.601562 156.71875 C 246.882812 159.414062 246.359375 162.167969 246.046875 164.96875 C 243.886719 164.691406 241.945312 164.597656 240 164.707031 C 236.222656 164.917969 232.492188 165.886719 227.210938 167.730469 C 226.78125 167.878906 226.550781 168.351562 226.703125 168.78125 C 226.855469 169.214844 227.324219 169.441406 227.757812 169.289062 C 232.882812 167.5 236.492188 166.5625 240.089844 166.359375 C 241.945312 166.257812 243.804688 166.347656 245.890625 166.617188 C 245.714844 168.730469 245.664062 170.871094 245.742188 173.027344 C 245.753906 173.367188 245.773438 173.707031 245.792969 174.042969 L 245.714844 174.0625 C 242.050781 174.984375 238.566406 176.644531 233.734375 179.449219 C 233.339844 179.683594 233.207031 180.1875 233.4375 180.582031 C 233.664062 180.976562 234.171875 181.113281 234.566406 180.886719 C 239.183594 178.199219 242.515625 176.601562 245.941406 175.710938 C 247.011719 185.183594 251.941406 193.449219 260.730469 200.523438 Z M 167.363281 226.125 C 186.730469 246.46875 195.167969 281.652344 198.96875 313.117188 C 207.226562 315.324219 210.105469 328.53125 207.101562 347.851562 C 198.210938 385.160156 173.757812 406.507812 133.742188 411.886719 C 58.734375 417.019531 15.207031 400.074219 3.160156 361.050781 C 0.304688 336.65625 27.804688 323.113281 36.90625 342.476562 C 50.292969 378.65625 86.394531 392.382812 120.804688 389.855469 C 81.304688 389.214844 42.453125 368.597656 44.941406 327.972656 C 47.730469 294.265625 57.398438 264.558594 73.941406 238.839844 C 71.609375 236.992188 69.605469 234.8125 67.941406 232.300781 C 67.253906 232.828125 66.613281 233.375 66 233.953125 C 63.6875 236.132812 61.789062 238.824219 59.34375 242.957031 C 59.140625 243.304688 58.691406 243.421875 58.34375 243.214844 C 57.996094 243.007812 57.878906 242.5625 58.085938 242.210938 C 60.597656 237.964844 62.570312 235.179688 64.996094 232.886719 C 65.679688 232.242188 66.394531 231.636719 67.164062 231.054688 C 66.199219 229.4375 65.335938 227.785156 64.578125 226.101562 C 61.628906 227.09375 59.378906 228.074219 57.332031 229.378906 C 54.640625 231.085938 52.265625 233.367188 49.085938 236.957031 C 48.820312 237.257812 48.355469 237.285156 48.054688 237.019531 C 47.753906 236.75 47.722656 236.289062 47.992188 235.988281 C 51.269531 232.285156 53.730469 229.929688 56.546875 228.140625 C 58.675781 226.785156 60.988281 225.765625 63.992188 224.75 C 63.03125 222.4375 62.253906 220.074219 61.65625 217.667969 C 59.027344 218.582031 56.964844 219.515625 55.070312 220.71875 C 52.382812 222.425781 50.007812 224.707031 46.828125 228.296875 C 46.558594 228.597656 46.097656 228.628906 45.792969 228.359375 C 45.492188 228.09375 45.464844 227.628906 45.730469 227.328125 C 49.007812 223.628906 51.472656 221.269531 54.285156 219.480469 C 56.316406 218.1875 58.515625 217.207031 61.320312 216.234375 C 59.0625 205.988281 59.902344 195.125 63.042969 184.921875 C 52.214844 173.320312 45.316406 159.121094 42.347656 142.328125 C 61.214844 140.449219 76.019531 143.039062 86.769531 150.09375 C 91.6875 146.378906 97.066406 143.574219 102.726562 141.992188 C 102.726562 141.992188 103.839844 141.703125 106.058594 141.125 C 111.773438 139.738281 117.839844 139.558594 123.941406 140.402344 C 129.875 129 141.53125 119.511719 158.914062 111.941406 C 164.53125 128.042969 165.449219 143.800781 161.671875 159.210938 C 169.476562 166.648438 175.558594 175.828125 178.566406 185.988281 C 180.28125 185.789062 181.851562 185.726562 183.425781 185.816406 C 186.757812 186.003906 190.0625 186.855469 194.726562 188.484375 C 195.105469 188.617188 195.308594 189.035156 195.175781 189.414062 C 195.039062 189.796875 194.625 190 194.246094 189.867188 C 189.710938 188.28125 186.523438 187.457031 183.34375 187.277344 C 181.933594 187.195312 180.511719 187.246094 178.96875 187.414062 C 179.601562 189.796875 180.0625 192.230469 180.339844 194.703125 C 182.25 194.457031 183.964844 194.378906 185.683594 194.472656 C 189.019531 194.660156 192.320312 195.515625 196.984375 197.144531 C 197.363281 197.277344 197.566406 197.691406 197.433594 198.074219 C 197.300781 198.457031 196.882812 198.660156 196.503906 198.523438 C 191.972656 196.941406 188.78125 196.113281 185.605469 195.933594 C 183.96875 195.84375 182.316406 195.921875 180.480469 196.160156 C 180.628906 198.03125 180.679688 199.921875 180.609375 201.828125 C 180.597656 202.128906 180.582031 202.425781 180.5625 202.722656 L 180.628906 202.738281 C 183.871094 203.554688 186.949219 205.023438 191.21875 207.503906 C 191.566406 207.703125 191.6875 208.152344 191.484375 208.503906 C 191.28125 208.851562 190.832031 208.972656 190.484375 208.769531 C 186.402344 206.398438 183.460938 204.984375 180.429688 204.199219 C 179.488281 212.566406 175.132812 219.875 167.363281 226.125 Z M 167.363281 226.125 " fill-opacity="1" fill-rule="evenodd"/></g></svg>