<svg xmlns="http://www.w3.org/2000/svg" xmlns:xlink="http://www.w3.org/1999/xlink" width="600" zoomAndPan="magnify" viewBox="0 0 450 449.999984" height="600" preserveAspectRatio="xMidYMid meet" version="1.0"><defs><clipPath id="91fe2934ad"><path d="M 81.433594 166.75 L 370.933594 166.75 L 370.933594 227 L 81.433594 227 Z M 81.433594 166.75 " clip-rule="nonzero"/></clipPath><clipPath id="9dcf86c3f5"><path d="M 86 239 L 367 239 L 367 432.25 L 86 432.25 Z M 86 239 " clip-rule="nonzero"/></clipPath><clipPath id="d90ab69ff2"><path d="M 177 1 L 265 1 L 265 135 L 177 135 Z M 177 1 " clip-rule="nonzero"/></clipPath><clipPath id="c00d44bd5e"><path d="M 145.992188 68.128906 L 237.390625 -0.00390625 L 306.421875 92.59375 L 215.023438 160.730469 Z M 145.992188 68.128906 " clip-rule="nonzero"/></clipPath><clipPath id="93d83759cb"><path d="M 145.992188 68.128906 L 237.390625 -0.00390625 L 306.421875 92.59375 L 215.023438 160.730469 Z M 145.992188 68.128906 " clip-rule="nonzero"/></clipPath><clipPath id="dc7904e303"><path d="M 145.992188 68.128906 L 237.390625 -0.00390625 L 306.421875 92.59375 L 215.023438 160.730469 Z M 145.992188 68.128906 " clip-rule="nonzero"/></clipPath><clipPath id="a3ccbcb670"><path d="M 299 57 L 398 57 L 398 157 L 299 157 Z M 299 57 " clip-rule="nonzero"/></clipPath><clipPath id="8e8e4ecbfe"><path d="M 404.992188 112.144531 L 333.703125 170.691406 L 278.964844 104.039062 L 350.253906 45.492188 Z M 404.992188 112.144531 " clip-rule="nonzero"/></clipPath><clipPath id="35d4b71876"><path d="M 404.992188 112.144531 L 333.703125 170.691406 L 278.964844 104.039062 L 350.253906 45.492188 Z M 404.992188 112.144531 " clip-rule="nonzero"/></clipPath><clipPath id="3a66be668f"><path d="M 404.992188 112.144531 L 333.703125 170.691406 L 278.964844 104.039062 L 350.253906 45.492188 Z M 404.992188 112.144531 " clip-rule="nonzero"/></clipPath><clipPath id="b2345ae015"><path d="M 50 75 L 135 75 L 135 151 L 50 151 Z M 50 75 " clip-rule="nonzero"/></clipPath><clipPath id="106370b813"><path d="M 74.300781 49.644531 L 148.789062 105.324219 L 102.539062 167.199219 L 28.050781 111.519531 Z M 74.300781 49.644531 " clip-rule="nonzero"/></clipPath><clipPath id="ecba38e163"><path d="M 74.300781 49.644531 L 148.789062 105.324219 L 102.539062 167.199219 L 28.050781 111.519531 Z M 74.300781 49.644531 " clip-rule="nonzero"/></clipPath><clipPath id="6b056a9ebc"><path d="M 74.300781 49.644531 L 148.789062 105.324219 L 102.539062 167.199219 L 28.050781 111.519531 Z M 74.300781 49.644531 " clip-rule="nonzero"/></clipPath></defs><g clip-path="url(#91fe2934ad)"><path fill="#000000" d="M 370.679688 224.96875 L 370.679688 177.519531 C 370.679688 171.582031 366.121094 166.75 360.519531 166.75 L 91.847656 166.75 C 86.242188 166.75 81.683594 171.582031 81.683594 177.519531 L 81.683594 224.96875 C 81.683594 225.917969 82.359375 226.691406 83.191406 226.691406 L 369.175781 226.691406 C 370.007812 226.691406 370.679688 225.917969 370.679688 224.96875 Z M 370.679688 224.96875 " fill-opacity="1" fill-rule="nonzero"/></g><g clip-path="url(#9dcf86c3f5)"><path fill="#000000" d="M 131.933594 432.234375 L 320.433594 432.234375 C 345.695312 432.234375 366.246094 412.289062 366.246094 387.769531 L 366.246094 239.289062 L 86.121094 239.289062 L 86.121094 387.769531 C 86.121094 412.289062 106.671875 432.234375 131.933594 432.234375 Z M 131.933594 432.234375 " fill-opacity="1" fill-rule="nonzero"/></g><path fill="#8c52ff" d="M 183.148438 260.566406 C 192.125 257.121094 203.898438 271.039062 207.980469 273.425781 C 215.320312 271.960938 222.816406 271.332031 226.746094 271.417969 C 231.65625 271.527344 239.550781 272.34375 244.1875 273.265625 C 249 274.222656 259.140625 256.226562 269.351562 260.566406 C 278.460938 264.441406 272.828125 288.457031 273.105469 292.09375 C 273.378906 295.730469 281.214844 301.644531 279.894531 320.90625 C 278.566406 340.171875 259.949219 357.96875 227.464844 357.96875 C 191.8125 357.96875 177.628906 341.367188 173.875 326.984375 C 169.144531 308.863281 179.78125 295.023438 179.78125 290.574219 C 179.78125 286.308594 175.089844 263.660156 183.148438 260.566406 Z M 183.148438 260.566406 " fill-opacity="1" fill-rule="nonzero"/><path fill="#8c52ff" d="M 243.6875 314.003906 C 243.242188 314.003906 242.800781 313.945312 242.367188 313.824219 C 241.929688 313.707031 241.507812 313.527344 241.097656 313.296875 C 240.6875 313.0625 240.296875 312.773438 239.929688 312.433594 C 239.558594 312.097656 239.21875 311.710938 238.902344 311.277344 C 238.589844 310.847656 238.308594 310.378906 238.0625 309.871094 C 237.816406 309.363281 237.605469 308.824219 237.4375 308.261719 C 237.265625 307.699219 237.140625 307.117188 237.050781 306.515625 C 236.964844 305.917969 236.921875 305.3125 236.921875 304.703125 C 236.921875 304.089844 236.964844 303.488281 237.050781 302.886719 C 237.140625 302.289062 237.265625 301.707031 237.4375 301.144531 C 237.605469 300.578125 237.816406 300.042969 238.0625 299.535156 C 238.308594 299.027344 238.589844 298.558594 238.902344 298.125 C 239.21875 297.695312 239.558594 297.308594 239.929688 296.96875 C 240.296875 296.628906 240.6875 296.34375 241.097656 296.109375 C 241.507812 295.875 241.929688 295.699219 242.367188 295.582031 C 242.800781 295.460938 243.242188 295.402344 243.6875 295.402344 C 244.128906 295.402344 244.570312 295.460938 245.007812 295.582031 C 245.441406 295.699219 245.863281 295.875 246.273438 296.109375 C 246.683594 296.34375 247.074219 296.628906 247.445312 296.96875 C 247.8125 297.308594 248.15625 297.695312 248.46875 298.125 C 248.785156 298.558594 249.0625 299.027344 249.308594 299.535156 C 249.558594 300.042969 249.765625 300.578125 249.933594 301.144531 C 250.105469 301.707031 250.234375 302.289062 250.320312 302.886719 C 250.40625 303.488281 250.449219 304.089844 250.449219 304.703125 C 250.449219 305.3125 250.40625 305.917969 250.320312 306.515625 C 250.234375 307.117188 250.105469 307.699219 249.933594 308.261719 C 249.765625 308.824219 249.558594 309.363281 249.308594 309.871094 C 249.0625 310.378906 248.785156 310.847656 248.46875 311.277344 C 248.15625 311.710938 247.8125 312.097656 247.445312 312.433594 C 247.074219 312.773438 246.683594 313.0625 246.273438 313.296875 C 245.863281 313.527344 245.441406 313.707031 245.007812 313.824219 C 244.570312 313.945312 244.128906 314.003906 243.6875 314.003906 Z M 243.6875 314.003906 " fill-opacity="1" fill-rule="nonzero"/><path fill="#8c52ff" d="M 209.019531 314.003906 C 208.578125 314.003906 208.136719 313.945312 207.699219 313.824219 C 207.265625 313.707031 206.84375 313.527344 206.433594 313.296875 C 206.023438 313.0625 205.632812 312.773438 205.261719 312.4375 C 204.894531 312.097656 204.550781 311.710938 204.238281 311.277344 C 203.921875 310.847656 203.644531 310.378906 203.394531 309.871094 C 203.148438 309.363281 202.941406 308.824219 202.769531 308.261719 C 202.601562 307.699219 202.472656 307.117188 202.386719 306.515625 C 202.300781 305.917969 202.257812 305.3125 202.257812 304.703125 C 202.257812 304.089844 202.300781 303.488281 202.386719 302.886719 C 202.472656 302.289062 202.601562 301.707031 202.769531 301.144531 C 202.941406 300.578125 203.148438 300.042969 203.394531 299.535156 C 203.644531 299.027344 203.921875 298.558594 204.238281 298.125 C 204.550781 297.695312 204.894531 297.308594 205.261719 296.96875 C 205.632812 296.628906 206.023438 296.34375 206.433594 296.109375 C 206.84375 295.875 207.265625 295.699219 207.699219 295.582031 C 208.136719 295.460938 208.578125 295.402344 209.019531 295.402344 C 209.464844 295.402344 209.90625 295.460938 210.339844 295.582031 C 210.777344 295.699219 211.199219 295.875 211.609375 296.109375 C 212.019531 296.34375 212.410156 296.628906 212.777344 296.96875 C 213.148438 297.308594 213.488281 297.695312 213.804688 298.125 C 214.117188 298.558594 214.398438 299.027344 214.644531 299.535156 C 214.890625 300.042969 215.101562 300.578125 215.269531 301.144531 C 215.441406 301.707031 215.566406 302.289062 215.65625 302.886719 C 215.742188 303.488281 215.785156 304.089844 215.785156 304.703125 C 215.785156 305.3125 215.742188 305.917969 215.65625 306.515625 C 215.566406 307.117188 215.441406 307.699219 215.269531 308.261719 C 215.101562 308.824219 214.890625 309.363281 214.644531 309.871094 C 214.398438 310.378906 214.117188 310.847656 213.804688 311.277344 C 213.488281 311.710938 213.148438 312.097656 212.777344 312.4375 C 212.410156 312.773438 212.019531 313.0625 211.609375 313.296875 C 211.199219 313.527344 210.777344 313.707031 210.339844 313.824219 C 209.90625 313.945312 209.464844 314.003906 209.019531 314.003906 Z M 209.019531 314.003906 " fill-opacity="1" fill-rule="nonzero"/><g clip-path="url(#d90ab69ff2)"><g clip-path="url(#c00d44bd5e)"><g clip-path="url(#93d83759cb)"><g clip-path="url(#dc7904e303)"><path fill="#000000" d="M 193.605469 129.683594 C 180.085938 113.777344 176.203125 96.238281 177.457031 83.421875 C 178.710938 70.609375 185.355469 59.988281 197.390625 47.09375 C 209.425781 34.195312 232.671875 23.933594 235.582031 1.574219 C 297.726562 80.785156 247.851562 136.015625 202.160156 134.535156 C 203.164062 115.039062 207.96875 98.148438 219.101562 81.148438 C 227.097656 68.941406 235.546875 59.53125 236.964844 40.105469 C 229.601562 61.433594 218.125 71.152344 211.324219 80.59375 C 201.226562 94.617188 194.960938 108.011719 193.605469 129.683594 Z M 193.605469 129.683594 " fill-opacity="1" fill-rule="evenodd"/></g></g></g></g><g clip-path="url(#a3ccbcb670)"><g clip-path="url(#8e8e4ecbfe)"><g clip-path="url(#35d4b71876)"><g clip-path="url(#3a66be668f)"><path fill="#000000" d="M 314.417969 132.523438 C 315.15625 131.917969 315.785156 131.214844 316.304688 130.414062 C 316.828125 129.609375 317.214844 128.75 317.472656 127.828125 C 317.726562 126.90625 317.839844 125.964844 317.808594 125.007812 C 317.777344 124.050781 317.605469 123.117188 317.289062 122.214844 L 330.179688 115.316406 C 330.453125 115.722656 330.75 116.121094 331.066406 116.511719 C 332.328125 118.046875 333.832031 119.289062 335.578125 120.234375 C 337.324219 121.179688 339.183594 121.757812 341.15625 121.96875 L 341.042969 137.421875 C 340.65625 137.480469 340.277344 137.558594 339.902344 137.660156 C 339.527344 137.765625 339.160156 137.890625 338.800781 138.039062 C 338.445312 138.1875 338.09375 138.359375 337.757812 138.550781 C 337.421875 138.742188 337.097656 138.957031 336.785156 139.1875 C 336.476562 139.421875 336.179688 139.671875 335.898438 139.941406 C 335.621094 140.214844 335.359375 140.5 335.117188 140.800781 C 334.871094 141.105469 334.648438 141.421875 334.445312 141.753906 C 334.242188 142.082031 334.058594 142.425781 333.894531 142.777344 C 333.734375 143.132812 333.597656 143.496094 333.480469 143.867188 C 333.363281 144.238281 333.269531 144.613281 333.203125 144.996094 C 333.132812 145.382812 333.085938 145.765625 333.066406 146.15625 C 333.046875 146.542969 333.046875 146.933594 333.074219 147.324219 C 333.101562 147.710938 333.15625 148.097656 333.230469 148.480469 C 333.304688 148.863281 333.402344 149.238281 333.527344 149.609375 C 333.648438 149.980469 333.792969 150.339844 333.957031 150.695312 C 334.125 151.046875 334.3125 151.386719 334.523438 151.71875 C 334.730469 152.046875 334.960938 152.363281 335.210938 152.664062 C 335.457031 152.964844 335.722656 153.25 336.007812 153.515625 C 336.292969 153.785156 336.589844 154.035156 336.90625 154.265625 C 337.21875 154.496094 337.546875 154.707031 337.886719 154.898438 C 338.226562 155.089844 338.578125 155.257812 338.941406 155.402344 C 339.300781 155.550781 339.667969 155.675781 340.046875 155.773438 C 340.421875 155.875 340.804688 155.953125 341.191406 156.007812 C 341.574219 156.058594 341.960938 156.089844 342.351562 156.09375 C 342.742188 156.097656 343.128906 156.078125 343.515625 156.035156 C 343.902344 155.992188 344.285156 155.925781 344.664062 155.835938 C 345.039062 155.742188 345.410156 155.628906 345.773438 155.492188 C 346.136719 155.355469 346.492188 155.195312 346.835938 155.015625 C 347.179688 154.832031 347.507812 154.628906 347.828125 154.40625 C 348.144531 154.183594 348.449219 153.941406 348.738281 153.683594 C 349.023438 153.421875 349.296875 153.144531 349.546875 152.847656 C 349.800781 152.554688 350.035156 152.246094 350.25 151.921875 C 350.464844 151.597656 350.65625 151.261719 350.832031 150.914062 C 351.003906 150.5625 351.152344 150.207031 351.28125 149.839844 C 351.410156 149.472656 351.515625 149.097656 351.59375 148.71875 C 351.675781 148.335938 351.734375 147.953125 351.769531 147.5625 C 351.800781 147.175781 351.8125 146.789062 351.796875 146.398438 C 351.78125 146.007812 351.742188 145.621094 351.679688 145.238281 C 351.617188 144.851562 351.53125 144.472656 351.417969 144.097656 C 351.308594 143.722656 351.175781 143.359375 351.019531 143 C 350.863281 142.644531 350.6875 142.296875 350.488281 141.960938 C 350.289062 141.625 350.070312 141.300781 349.832031 140.992188 C 349.59375 140.683594 349.335938 140.390625 349.0625 140.113281 C 348.789062 139.835938 348.496094 139.578125 348.191406 139.335938 C 347.882812 139.09375 347.5625 138.875 347.226562 138.671875 C 346.894531 138.472656 346.546875 138.292969 346.191406 138.132812 C 345.835938 137.976562 345.46875 137.839844 345.097656 137.726562 C 344.722656 137.617188 344.347656 137.527344 343.960938 137.460938 L 344.074219 122.007812 C 344.90625 121.9375 345.722656 121.800781 346.527344 121.597656 C 347.332031 121.390625 348.117188 121.121094 348.878906 120.785156 C 349.636719 120.453125 350.367188 120.054688 351.058594 119.601562 C 351.753906 119.144531 352.40625 118.632812 353.015625 118.070312 C 353.625 117.507812 354.183594 116.894531 354.691406 116.238281 C 355.203125 115.582031 355.652344 114.886719 356.046875 114.152344 C 356.4375 113.421875 356.769531 112.660156 357.035156 111.875 C 357.300781 111.085938 357.503906 110.28125 357.636719 109.460938 L 369.445312 110.300781 C 369.46875 110.890625 369.527344 111.476562 369.625 112.058594 C 369.722656 112.640625 369.855469 113.214844 370.023438 113.78125 C 370.195312 114.347656 370.398438 114.898438 370.636719 115.441406 C 370.878906 115.980469 371.148438 116.503906 371.453125 117.007812 C 371.761719 117.515625 372.097656 118 372.464844 118.464844 C 372.828125 118.929688 373.222656 119.367188 373.644531 119.78125 C 374.066406 120.195312 374.515625 120.582031 374.984375 120.9375 C 375.453125 121.296875 375.945312 121.621094 376.457031 121.917969 C 376.96875 122.214844 377.496094 122.476562 378.042969 122.703125 C 378.585938 122.933594 379.140625 123.128906 379.710938 123.285156 C 380.28125 123.445312 380.855469 123.566406 381.4375 123.652344 C 382.023438 123.734375 382.609375 123.785156 383.199219 123.796875 C 383.789062 123.804688 384.375 123.78125 384.960938 123.714844 C 385.546875 123.652344 386.125 123.554688 386.699219 123.414062 C 387.269531 123.277344 387.832031 123.105469 388.382812 122.898438 C 388.933594 122.6875 389.46875 122.445312 389.988281 122.171875 C 390.507812 121.894531 391.007812 121.585938 391.488281 121.246094 C 391.96875 120.90625 392.421875 120.539062 392.855469 120.140625 C 393.289062 119.742188 393.695312 119.316406 394.074219 118.867188 C 394.453125 118.417969 394.804688 117.945312 395.121094 117.449219 C 395.441406 116.957031 395.730469 116.445312 395.984375 115.914062 C 396.238281 115.382812 396.457031 114.835938 396.640625 114.277344 C 396.828125 113.71875 396.976562 113.148438 397.089844 112.570312 C 397.199219 111.992188 397.277344 111.410156 397.316406 110.820312 C 397.355469 110.230469 397.355469 109.644531 397.320312 109.054688 C 397.285156 108.464844 397.210938 107.878906 397.101562 107.300781 C 396.992188 106.71875 396.847656 106.148438 396.667969 105.585938 C 396.484375 105.023438 396.269531 104.476562 396.015625 103.941406 C 395.765625 103.40625 395.484375 102.886719 395.167969 102.390625 C 394.851562 101.890625 394.503906 101.410156 394.125 100.957031 C 393.75 100.5 393.347656 100.070312 392.914062 99.664062 C 392.484375 99.261719 392.03125 98.886719 391.550781 98.539062 C 391.074219 98.191406 390.578125 97.875 390.058594 97.589844 C 389.539062 97.304688 389.007812 97.054688 388.457031 96.835938 C 387.910156 96.621094 387.347656 96.441406 386.777344 96.292969 C 386.203125 96.148438 385.625 96.039062 385.042969 95.964844 C 384.457031 95.894531 383.867188 95.859375 383.277344 95.859375 C 382.691406 95.863281 382.101562 95.902344 381.519531 95.976562 C 380.933594 96.054688 380.359375 96.164062 379.789062 96.316406 C 379.21875 96.464844 378.660156 96.648438 378.117188 96.871094 C 377.570312 97.089844 377.039062 97.34375 376.527344 97.632812 C 376.015625 97.917969 375.523438 98.238281 375.050781 98.589844 C 374.578125 98.941406 374.128906 99.320312 373.703125 99.726562 C 373.28125 100.132812 372.882812 100.566406 372.511719 101.023438 C 372.144531 101.480469 371.804688 101.960938 371.496094 102.464844 C 371.1875 102.964844 370.914062 103.484375 370.671875 104.019531 C 370.429688 104.554688 370.21875 105.105469 370.046875 105.667969 C 369.875 106.234375 369.738281 106.804688 369.636719 107.386719 L 357.828125 106.542969 C 357.804688 105.628906 357.695312 104.71875 357.5 103.820312 C 357.308594 102.921875 357.039062 102.046875 356.6875 101.199219 C 356.335938 100.347656 355.910156 99.539062 355.410156 98.765625 C 354.914062 97.992188 354.347656 97.269531 353.71875 96.601562 C 353.089844 95.929688 352.40625 95.320312 351.664062 94.777344 C 350.925781 94.230469 350.144531 93.753906 349.316406 93.351562 C 348.492188 92.949219 347.636719 92.621094 346.753906 92.375 C 345.871094 92.125 344.96875 91.960938 344.058594 91.878906 L 343.964844 81.195312 C 344.464844 81.132812 344.960938 81.035156 345.449219 80.910156 C 345.9375 80.785156 346.417969 80.632812 346.886719 80.445312 C 347.355469 80.261719 347.808594 80.046875 348.25 79.800781 C 348.691406 79.558594 349.117188 79.289062 349.523438 78.992188 C 349.929688 78.695312 350.316406 78.375 350.683594 78.027344 C 351.050781 77.683594 351.394531 77.316406 351.714844 76.925781 C 352.035156 76.535156 352.328125 76.128906 352.597656 75.703125 C 352.867188 75.273438 353.105469 74.832031 353.320312 74.375 C 353.53125 73.917969 353.714844 73.449219 353.867188 72.96875 C 354.023438 72.488281 354.144531 72 354.238281 71.503906 C 354.328125 71.007812 354.390625 70.503906 354.417969 70 C 354.449219 69.496094 354.445312 68.992188 354.410156 68.488281 C 354.375 67.984375 354.308594 67.484375 354.210938 66.988281 C 354.113281 66.488281 353.988281 66 353.828125 65.519531 C 353.667969 65.039062 353.480469 64.570312 353.261719 64.113281 C 353.042969 63.65625 352.800781 63.214844 352.527344 62.789062 C 352.253906 62.363281 351.953125 61.957031 351.628906 61.566406 C 351.304688 61.179688 350.957031 60.8125 350.585938 60.464844 C 350.21875 60.121094 349.828125 59.800781 349.417969 59.503906 C 349.007812 59.207031 348.578125 58.9375 348.132812 58.695312 C 347.691406 58.453125 347.234375 58.238281 346.761719 58.054688 C 346.292969 57.867188 345.8125 57.714844 345.320312 57.589844 C 344.832031 57.464844 344.335938 57.371094 343.832031 57.308594 C 343.332031 57.246094 342.828125 57.214844 342.324219 57.21875 C 341.820312 57.21875 341.316406 57.253906 340.816406 57.316406 C 340.316406 57.382812 339.820312 57.476562 339.332031 57.605469 C 338.84375 57.730469 338.367188 57.890625 337.898438 58.078125 C 337.429688 58.265625 336.976562 58.480469 336.535156 58.726562 C 336.097656 58.972656 335.671875 59.242188 335.265625 59.539062 C 334.859375 59.839844 334.476562 60.164062 334.109375 60.511719 C 333.746094 60.855469 333.402344 61.226562 333.085938 61.617188 C 332.765625 62.007812 332.472656 62.417969 332.207031 62.84375 C 331.941406 63.273438 331.703125 63.714844 331.492188 64.171875 C 331.28125 64.632812 331.097656 65.101562 330.945312 65.582031 C 330.796875 66.0625 330.675781 66.554688 330.585938 67.050781 C 330.496094 67.546875 330.4375 68.046875 330.410156 68.550781 C 330.382812 69.058594 330.386719 69.5625 330.425781 70.066406 C 330.460938 70.570312 330.527344 71.070312 330.628906 71.566406 C 330.726562 72.0625 330.859375 72.550781 331.019531 73.03125 C 331.179688 73.511719 331.371094 73.976562 331.589844 74.433594 C 331.808594 74.890625 332.054688 75.332031 332.332031 75.757812 C 332.605469 76.179688 332.90625 76.589844 333.234375 76.976562 C 333.558594 77.363281 333.90625 77.730469 334.277344 78.074219 C 334.652344 78.417969 335.042969 78.734375 335.453125 79.03125 C 335.867188 79.324219 336.292969 79.59375 336.738281 79.832031 C 337.183594 80.074219 337.644531 80.285156 338.113281 80.46875 C 338.585938 80.652344 339.066406 80.804688 339.558594 80.929688 C 340.046875 81.050781 340.542969 81.140625 341.046875 81.203125 L 341.136719 91.882812 C 340.550781 91.941406 339.972656 92.035156 339.398438 92.160156 C 338.828125 92.289062 338.261719 92.445312 337.707031 92.640625 C 337.152344 92.832031 336.613281 93.054688 336.085938 93.308594 C 335.554688 93.566406 335.046875 93.851562 334.550781 94.167969 C 334.054688 94.484375 333.582031 94.824219 333.128906 95.195312 C 332.671875 95.566406 332.242188 95.964844 331.835938 96.386719 C 331.425781 96.808594 331.046875 97.25 330.691406 97.71875 C 330.332031 98.183594 330.007812 98.671875 329.707031 99.175781 C 329.410156 99.679688 329.140625 100.199219 328.902344 100.738281 C 328.664062 101.273438 328.457031 101.824219 328.285156 102.382812 C 328.109375 102.945312 327.96875 103.515625 327.863281 104.09375 C 327.753906 104.667969 327.679688 105.25 327.640625 105.839844 C 327.601562 106.425781 327.597656 107.011719 327.625 107.601562 C 327.652344 108.1875 327.714844 108.773438 327.8125 109.351562 C 327.910156 109.933594 328.039062 110.507812 328.203125 111.070312 C 328.367188 111.636719 328.5625 112.191406 328.792969 112.734375 L 315.898438 119.636719 C 315.828125 119.539062 315.753906 119.445312 315.679688 119.355469 C 315.289062 118.878906 314.855469 118.445312 314.378906 118.054688 C 313.902344 117.664062 313.394531 117.320312 312.851562 117.03125 C 312.308594 116.738281 311.746094 116.503906 311.15625 116.324219 C 310.566406 116.144531 309.96875 116.023438 309.355469 115.960938 C 308.746094 115.902344 308.136719 115.898438 307.523438 115.957031 C 306.914062 116.019531 306.3125 116.136719 305.726562 116.3125 C 305.140625 116.488281 304.574219 116.722656 304.035156 117.011719 C 303.496094 117.300781 302.988281 117.640625 302.515625 118.027344 C 302.039062 118.417969 301.609375 118.847656 301.222656 119.320312 C 300.832031 119.796875 300.496094 120.304688 300.207031 120.847656 C 299.917969 121.386719 299.6875 121.953125 299.507812 122.539062 C 299.332031 123.128906 299.214844 123.726562 299.15625 124.339844 C 299.097656 124.949219 299.101562 125.5625 299.160156 126.171875 C 299.222656 126.785156 299.34375 127.386719 299.523438 127.972656 C 299.703125 128.5625 299.9375 129.128906 300.230469 129.671875 C 300.519531 130.214844 300.863281 130.722656 301.253906 131.199219 C 301.644531 131.675781 302.078125 132.109375 302.550781 132.5 C 303.027344 132.890625 303.539062 133.230469 304.078125 133.523438 C 304.621094 133.8125 305.1875 134.046875 305.773438 134.226562 C 306.363281 134.40625 306.960938 134.527344 307.574219 134.589844 C 308.183594 134.652344 308.796875 134.652344 309.40625 134.59375 C 310.019531 134.535156 310.617188 134.417969 311.203125 134.238281 C 311.792969 134.0625 312.355469 133.828125 312.894531 133.542969 C 313.4375 133.253906 313.945312 132.914062 314.417969 132.523438 Z M 314.417969 132.523438 " fill-opacity="1" fill-rule="nonzero"/></g></g></g></g><g clip-path="url(#b2345ae015)"><g clip-path="url(#106370b813)"><g clip-path="url(#ecba38e163)"><g clip-path="url(#6b056a9ebc)"><path fill="#000000" d="M 110.828125 119.578125 L 134.496094 117.578125 C 134.691406 124.027344 123.980469 128.855469 118.34375 130.804688 C 118.070312 136.757812 116.472656 148.398438 110.234375 150.035156 L 105.453125 126.769531 C 84.667969 129.105469 44.324219 123.699219 51.246094 80.648438 C 90.578125 61.820312 107.1875 98.984375 110.828125 119.578125 Z M 110.828125 119.578125 " fill-opacity="1" fill-rule="nonzero"/></g></g></g></g></svg>